<?xml version="1.0" encoding="utf-8" standalone="no"?>
<!DOCTYPE svg PUBLIC "-//W3C//DTD SVG 1.1//EN"
  "http://www.w3.org/Graphics/SVG/1.1/DTD/svg11.dtd">
<svg xmlns:xlink="http://www.w3.org/1999/xlink" width="864pt" height="360pt" viewBox="0 0 864 360" xmlns="http://www.w3.org/2000/svg" version="1.1">
 <metadata>
  <rdf:RDF xmlns:dc="http://purl.org/dc/elements/1.1/" xmlns:cc="http://creativecommons.org/ns#" xmlns:rdf="http://www.w3.org/1999/02/22-rdf-syntax-ns#">
   <cc:Work>
    <dc:type rdf:resource="http://purl.org/dc/dcmitype/StillImage"/>
    <dc:date>2022-12-29T08:57:30.160132</dc:date>
    <dc:format>image/svg+xml</dc:format>
    <dc:creator>
     <cc:Agent>
      <dc:title>Matplotlib v3.6.2, https://matplotlib.org/</dc:title>
     </cc:Agent>
    </dc:creator>
   </cc:Work>
  </rdf:RDF>
 </metadata>
 <defs>
  <style type="text/css">*{stroke-linejoin: round; stroke-linecap: butt}</style>
 </defs>
 <g id="figure_1">
  <g id="patch_1">
   <path d="M 0 360 
L 864 360 
L 864 0 
L 0 0 
L 0 360 
z
" style="fill: none; opacity: 0"/>
  </g>
  <g id="axes_1">
   <g id="patch_2">
    <path d="M 108 320.4 
L 777.6 320.4 
L 777.6 43.2 
L 108 43.2 
L 108 320.4 
z
" style="fill: none; opacity: 0"/>
   </g>
   <g id="matplotlib.axis_1">
    <g id="xtick_1">
     <g id="line2d_1">
      <path d="M 111.666331 320.4 
L 111.666331 43.2 
" clip-path="url(#p2c9190758d)" style="fill: none; stroke-dasharray: 5.12,1.28,0.8,1.28; stroke-dashoffset: 0; stroke: #b0b0b0; stroke-width: 0.8"/>
     </g>
     <g id="line2d_2">
      <defs>
       <path id="m17cdb98686" d="M 0 0 
L 0 3.5 
" style="stroke: #a9a9a9; stroke-width: 0.8"/>
      </defs>
      <g>
       <use xlink:href="#m17cdb98686" x="111.666331" y="320.4" style="fill: #a9a9a9; stroke: #a9a9a9; stroke-width: 0.8"/>
      </g>
     </g>
     <g id="text_1">
      <!-- 2021-07 -->
      <g style="fill: #a9a9a9" transform="translate(90.774924 334.998438) scale(0.1 -0.1)">
       <defs>
        <path id="DejaVuSans-32" d="M 1228 531 
L 3431 531 
L 3431 0 
L 469 0 
L 469 531 
Q 828 903 1448 1529 
Q 2069 2156 2228 2338 
Q 2531 2678 2651 2914 
Q 2772 3150 2772 3378 
Q 2772 3750 2511 3984 
Q 2250 4219 1831 4219 
Q 1534 4219 1204 4116 
Q 875 4013 500 3803 
L 500 4441 
Q 881 4594 1212 4672 
Q 1544 4750 1819 4750 
Q 2544 4750 2975 4387 
Q 3406 4025 3406 3419 
Q 3406 3131 3298 2873 
Q 3191 2616 2906 2266 
Q 2828 2175 2409 1742 
Q 1991 1309 1228 531 
z
" transform="scale(0.015625)"/>
        <path id="DejaVuSans-30" d="M 2034 4250 
Q 1547 4250 1301 3770 
Q 1056 3291 1056 2328 
Q 1056 1369 1301 889 
Q 1547 409 2034 409 
Q 2525 409 2770 889 
Q 3016 1369 3016 2328 
Q 3016 3291 2770 3770 
Q 2525 4250 2034 4250 
z
M 2034 4750 
Q 2819 4750 3233 4129 
Q 3647 3509 3647 2328 
Q 3647 1150 3233 529 
Q 2819 -91 2034 -91 
Q 1250 -91 836 529 
Q 422 1150 422 2328 
Q 422 3509 836 4129 
Q 1250 4750 2034 4750 
z
" transform="scale(0.015625)"/>
        <path id="DejaVuSans-31" d="M 794 531 
L 1825 531 
L 1825 4091 
L 703 3866 
L 703 4441 
L 1819 4666 
L 2450 4666 
L 2450 531 
L 3481 531 
L 3481 0 
L 794 0 
L 794 531 
z
" transform="scale(0.015625)"/>
        <path id="DejaVuSans-2d" d="M 313 2009 
L 1997 2009 
L 1997 1497 
L 313 1497 
L 313 2009 
z
" transform="scale(0.015625)"/>
        <path id="DejaVuSans-37" d="M 525 4666 
L 3525 4666 
L 3525 4397 
L 1831 0 
L 1172 0 
L 2766 4134 
L 525 4134 
L 525 4666 
z
" transform="scale(0.015625)"/>
       </defs>
       <use xlink:href="#DejaVuSans-32"/>
       <use xlink:href="#DejaVuSans-30" x="63.623047"/>
       <use xlink:href="#DejaVuSans-32" x="127.246094"/>
       <use xlink:href="#DejaVuSans-31" x="190.869141"/>
       <use xlink:href="#DejaVuSans-2d" x="254.492188"/>
       <use xlink:href="#DejaVuSans-30" x="290.576172"/>
       <use xlink:href="#DejaVuSans-37" x="354.199219"/>
      </g>
     </g>
    </g>
    <g id="xtick_2">
     <g id="line2d_3">
      <path d="M 183.829028 320.4 
L 183.829028 43.2 
" clip-path="url(#p2c9190758d)" style="fill: none; stroke-dasharray: 5.12,1.28,0.8,1.28; stroke-dashoffset: 0; stroke: #b0b0b0; stroke-width: 0.8"/>
     </g>
     <g id="line2d_4">
      <g>
       <use xlink:href="#m17cdb98686" x="183.829028" y="320.4" style="fill: #a9a9a9; stroke: #a9a9a9; stroke-width: 0.8"/>
      </g>
     </g>
     <g id="text_2">
      <!-- 2021-09 -->
      <g style="fill: #a9a9a9" transform="translate(162.937622 334.998438) scale(0.1 -0.1)">
       <defs>
        <path id="DejaVuSans-39" d="M 703 97 
L 703 672 
Q 941 559 1184 500 
Q 1428 441 1663 441 
Q 2288 441 2617 861 
Q 2947 1281 2994 2138 
Q 2813 1869 2534 1725 
Q 2256 1581 1919 1581 
Q 1219 1581 811 2004 
Q 403 2428 403 3163 
Q 403 3881 828 4315 
Q 1253 4750 1959 4750 
Q 2769 4750 3195 4129 
Q 3622 3509 3622 2328 
Q 3622 1225 3098 567 
Q 2575 -91 1691 -91 
Q 1453 -91 1209 -44 
Q 966 3 703 97 
z
M 1959 2075 
Q 2384 2075 2632 2365 
Q 2881 2656 2881 3163 
Q 2881 3666 2632 3958 
Q 2384 4250 1959 4250 
Q 1534 4250 1286 3958 
Q 1038 3666 1038 3163 
Q 1038 2656 1286 2365 
Q 1534 2075 1959 2075 
z
" transform="scale(0.015625)"/>
       </defs>
       <use xlink:href="#DejaVuSans-32"/>
       <use xlink:href="#DejaVuSans-30" x="63.623047"/>
       <use xlink:href="#DejaVuSans-32" x="127.246094"/>
       <use xlink:href="#DejaVuSans-31" x="190.869141"/>
       <use xlink:href="#DejaVuSans-2d" x="254.492188"/>
       <use xlink:href="#DejaVuSans-30" x="290.576172"/>
       <use xlink:href="#DejaVuSans-39" x="354.199219"/>
      </g>
     </g>
    </g>
    <g id="xtick_3">
     <g id="line2d_5">
      <path d="M 254.827812 320.4 
L 254.827812 43.2 
" clip-path="url(#p2c9190758d)" style="fill: none; stroke-dasharray: 5.12,1.28,0.8,1.28; stroke-dashoffset: 0; stroke: #b0b0b0; stroke-width: 0.8"/>
     </g>
     <g id="line2d_6">
      <g>
       <use xlink:href="#m17cdb98686" x="254.827812" y="320.4" style="fill: #a9a9a9; stroke: #a9a9a9; stroke-width: 0.8"/>
      </g>
     </g>
     <g id="text_3">
      <!-- 2021-11 -->
      <g style="fill: #a9a9a9" transform="translate(233.936405 334.998438) scale(0.1 -0.1)">
       <use xlink:href="#DejaVuSans-32"/>
       <use xlink:href="#DejaVuSans-30" x="63.623047"/>
       <use xlink:href="#DejaVuSans-32" x="127.246094"/>
       <use xlink:href="#DejaVuSans-31" x="190.869141"/>
       <use xlink:href="#DejaVuSans-2d" x="254.492188"/>
       <use xlink:href="#DejaVuSans-31" x="290.576172"/>
       <use xlink:href="#DejaVuSans-31" x="354.199219"/>
      </g>
     </g>
    </g>
    <g id="xtick_4">
     <g id="line2d_7">
      <path d="M 325.826595 320.4 
L 325.826595 43.2 
" clip-path="url(#p2c9190758d)" style="fill: none; stroke-dasharray: 5.12,1.28,0.8,1.28; stroke-dashoffset: 0; stroke: #b0b0b0; stroke-width: 0.8"/>
     </g>
     <g id="line2d_8">
      <g>
       <use xlink:href="#m17cdb98686" x="325.826595" y="320.4" style="fill: #a9a9a9; stroke: #a9a9a9; stroke-width: 0.8"/>
      </g>
     </g>
     <g id="text_4">
      <!-- 2022-01 -->
      <g style="fill: #a9a9a9" transform="translate(304.935189 334.998438) scale(0.1 -0.1)">
       <use xlink:href="#DejaVuSans-32"/>
       <use xlink:href="#DejaVuSans-30" x="63.623047"/>
       <use xlink:href="#DejaVuSans-32" x="127.246094"/>
       <use xlink:href="#DejaVuSans-32" x="190.869141"/>
       <use xlink:href="#DejaVuSans-2d" x="254.492188"/>
       <use xlink:href="#DejaVuSans-30" x="290.576172"/>
       <use xlink:href="#DejaVuSans-31" x="354.199219"/>
      </g>
     </g>
    </g>
    <g id="xtick_5">
     <g id="line2d_9">
      <path d="M 394.497549 320.4 
L 394.497549 43.2 
" clip-path="url(#p2c9190758d)" style="fill: none; stroke-dasharray: 5.12,1.28,0.8,1.28; stroke-dashoffset: 0; stroke: #b0b0b0; stroke-width: 0.8"/>
     </g>
     <g id="line2d_10">
      <g>
       <use xlink:href="#m17cdb98686" x="394.497549" y="320.4" style="fill: #a9a9a9; stroke: #a9a9a9; stroke-width: 0.8"/>
      </g>
     </g>
     <g id="text_5">
      <!-- 2022-03 -->
      <g style="fill: #a9a9a9" transform="translate(373.606143 334.998438) scale(0.1 -0.1)">
       <defs>
        <path id="DejaVuSans-33" d="M 2597 2516 
Q 3050 2419 3304 2112 
Q 3559 1806 3559 1356 
Q 3559 666 3084 287 
Q 2609 -91 1734 -91 
Q 1441 -91 1130 -33 
Q 819 25 488 141 
L 488 750 
Q 750 597 1062 519 
Q 1375 441 1716 441 
Q 2309 441 2620 675 
Q 2931 909 2931 1356 
Q 2931 1769 2642 2001 
Q 2353 2234 1838 2234 
L 1294 2234 
L 1294 2753 
L 1863 2753 
Q 2328 2753 2575 2939 
Q 2822 3125 2822 3475 
Q 2822 3834 2567 4026 
Q 2313 4219 1838 4219 
Q 1578 4219 1281 4162 
Q 984 4106 628 3988 
L 628 4550 
Q 988 4650 1302 4700 
Q 1616 4750 1894 4750 
Q 2613 4750 3031 4423 
Q 3450 4097 3450 3541 
Q 3450 3153 3228 2886 
Q 3006 2619 2597 2516 
z
" transform="scale(0.015625)"/>
       </defs>
       <use xlink:href="#DejaVuSans-32"/>
       <use xlink:href="#DejaVuSans-30" x="63.623047"/>
       <use xlink:href="#DejaVuSans-32" x="127.246094"/>
       <use xlink:href="#DejaVuSans-32" x="190.869141"/>
       <use xlink:href="#DejaVuSans-2d" x="254.492188"/>
       <use xlink:href="#DejaVuSans-30" x="290.576172"/>
       <use xlink:href="#DejaVuSans-33" x="354.199219"/>
      </g>
     </g>
    </g>
    <g id="xtick_6">
     <g id="line2d_11">
      <path d="M 465.496332 320.4 
L 465.496332 43.2 
" clip-path="url(#p2c9190758d)" style="fill: none; stroke-dasharray: 5.12,1.28,0.8,1.28; stroke-dashoffset: 0; stroke: #b0b0b0; stroke-width: 0.8"/>
     </g>
     <g id="line2d_12">
      <g>
       <use xlink:href="#m17cdb98686" x="465.496332" y="320.4" style="fill: #a9a9a9; stroke: #a9a9a9; stroke-width: 0.8"/>
      </g>
     </g>
     <g id="text_6">
      <!-- 2022-05 -->
      <g style="fill: #a9a9a9" transform="translate(444.604926 334.998438) scale(0.1 -0.1)">
       <defs>
        <path id="DejaVuSans-35" d="M 691 4666 
L 3169 4666 
L 3169 4134 
L 1269 4134 
L 1269 2991 
Q 1406 3038 1543 3061 
Q 1681 3084 1819 3084 
Q 2600 3084 3056 2656 
Q 3513 2228 3513 1497 
Q 3513 744 3044 326 
Q 2575 -91 1722 -91 
Q 1428 -91 1123 -41 
Q 819 9 494 109 
L 494 744 
Q 775 591 1075 516 
Q 1375 441 1709 441 
Q 2250 441 2565 725 
Q 2881 1009 2881 1497 
Q 2881 1984 2565 2268 
Q 2250 2553 1709 2553 
Q 1456 2553 1204 2497 
Q 953 2441 691 2322 
L 691 4666 
z
" transform="scale(0.015625)"/>
       </defs>
       <use xlink:href="#DejaVuSans-32"/>
       <use xlink:href="#DejaVuSans-30" x="63.623047"/>
       <use xlink:href="#DejaVuSans-32" x="127.246094"/>
       <use xlink:href="#DejaVuSans-32" x="190.869141"/>
       <use xlink:href="#DejaVuSans-2d" x="254.492188"/>
       <use xlink:href="#DejaVuSans-30" x="290.576172"/>
       <use xlink:href="#DejaVuSans-35" x="354.199219"/>
      </g>
     </g>
    </g>
    <g id="xtick_7">
     <g id="line2d_13">
      <path d="M 536.495116 320.4 
L 536.495116 43.2 
" clip-path="url(#p2c9190758d)" style="fill: none; stroke-dasharray: 5.12,1.28,0.8,1.28; stroke-dashoffset: 0; stroke: #b0b0b0; stroke-width: 0.8"/>
     </g>
     <g id="line2d_14">
      <g>
       <use xlink:href="#m17cdb98686" x="536.495116" y="320.4" style="fill: #a9a9a9; stroke: #a9a9a9; stroke-width: 0.8"/>
      </g>
     </g>
     <g id="text_7">
      <!-- 2022-07 -->
      <g style="fill: #a9a9a9" transform="translate(515.603709 334.998438) scale(0.1 -0.1)">
       <use xlink:href="#DejaVuSans-32"/>
       <use xlink:href="#DejaVuSans-30" x="63.623047"/>
       <use xlink:href="#DejaVuSans-32" x="127.246094"/>
       <use xlink:href="#DejaVuSans-32" x="190.869141"/>
       <use xlink:href="#DejaVuSans-2d" x="254.492188"/>
       <use xlink:href="#DejaVuSans-30" x="290.576172"/>
       <use xlink:href="#DejaVuSans-37" x="354.199219"/>
      </g>
     </g>
    </g>
    <g id="xtick_8">
     <g id="line2d_15">
      <path d="M 608.657813 320.4 
L 608.657813 43.2 
" clip-path="url(#p2c9190758d)" style="fill: none; stroke-dasharray: 5.12,1.28,0.8,1.28; stroke-dashoffset: 0; stroke: #b0b0b0; stroke-width: 0.8"/>
     </g>
     <g id="line2d_16">
      <g>
       <use xlink:href="#m17cdb98686" x="608.657813" y="320.4" style="fill: #a9a9a9; stroke: #a9a9a9; stroke-width: 0.8"/>
      </g>
     </g>
     <g id="text_8">
      <!-- 2022-09 -->
      <g style="fill: #a9a9a9" transform="translate(587.766407 334.998438) scale(0.1 -0.1)">
       <use xlink:href="#DejaVuSans-32"/>
       <use xlink:href="#DejaVuSans-30" x="63.623047"/>
       <use xlink:href="#DejaVuSans-32" x="127.246094"/>
       <use xlink:href="#DejaVuSans-32" x="190.869141"/>
       <use xlink:href="#DejaVuSans-2d" x="254.492188"/>
       <use xlink:href="#DejaVuSans-30" x="290.576172"/>
       <use xlink:href="#DejaVuSans-39" x="354.199219"/>
      </g>
     </g>
    </g>
    <g id="xtick_9">
     <g id="line2d_17">
      <path d="M 679.656597 320.4 
L 679.656597 43.2 
" clip-path="url(#p2c9190758d)" style="fill: none; stroke-dasharray: 5.12,1.28,0.8,1.28; stroke-dashoffset: 0; stroke: #b0b0b0; stroke-width: 0.8"/>
     </g>
     <g id="line2d_18">
      <g>
       <use xlink:href="#m17cdb98686" x="679.656597" y="320.4" style="fill: #a9a9a9; stroke: #a9a9a9; stroke-width: 0.8"/>
      </g>
     </g>
     <g id="text_9">
      <!-- 2022-11 -->
      <g style="fill: #a9a9a9" transform="translate(658.76519 334.998438) scale(0.1 -0.1)">
       <use xlink:href="#DejaVuSans-32"/>
       <use xlink:href="#DejaVuSans-30" x="63.623047"/>
       <use xlink:href="#DejaVuSans-32" x="127.246094"/>
       <use xlink:href="#DejaVuSans-32" x="190.869141"/>
       <use xlink:href="#DejaVuSans-2d" x="254.492188"/>
       <use xlink:href="#DejaVuSans-31" x="290.576172"/>
       <use xlink:href="#DejaVuSans-31" x="354.199219"/>
      </g>
     </g>
    </g>
    <g id="xtick_10">
     <g id="line2d_19">
      <path d="M 750.65538 320.4 
L 750.65538 43.2 
" clip-path="url(#p2c9190758d)" style="fill: none; stroke-dasharray: 5.12,1.28,0.8,1.28; stroke-dashoffset: 0; stroke: #b0b0b0; stroke-width: 0.8"/>
     </g>
     <g id="line2d_20">
      <g>
       <use xlink:href="#m17cdb98686" x="750.65538" y="320.4" style="fill: #a9a9a9; stroke: #a9a9a9; stroke-width: 0.8"/>
      </g>
     </g>
     <g id="text_10">
      <!-- 2023-01 -->
      <g style="fill: #a9a9a9" transform="translate(729.763974 334.998438) scale(0.1 -0.1)">
       <use xlink:href="#DejaVuSans-32"/>
       <use xlink:href="#DejaVuSans-30" x="63.623047"/>
       <use xlink:href="#DejaVuSans-32" x="127.246094"/>
       <use xlink:href="#DejaVuSans-33" x="190.869141"/>
       <use xlink:href="#DejaVuSans-2d" x="254.492188"/>
       <use xlink:href="#DejaVuSans-30" x="290.576172"/>
       <use xlink:href="#DejaVuSans-31" x="354.199219"/>
      </g>
     </g>
    </g>
   </g>
   <g id="matplotlib.axis_2">
    <g id="ytick_1">
     <g id="line2d_21">
      <path d="M 108 307.872832 
L 777.6 307.872832 
" clip-path="url(#p2c9190758d)" style="fill: none; stroke-dasharray: 5.12,1.28,0.8,1.28; stroke-dashoffset: 0; stroke: #b0b0b0; stroke-width: 0.8"/>
     </g>
     <g id="line2d_22">
      <defs>
       <path id="m4ae50992dd" d="M 0 0 
L -3.5 0 
" style="stroke: #a9a9a9; stroke-width: 0.8"/>
      </defs>
      <g>
       <use xlink:href="#m4ae50992dd" x="108" y="307.872832" style="fill: #a9a9a9; stroke: #a9a9a9; stroke-width: 0.8"/>
      </g>
     </g>
     <g id="text_11">
      <!-- 0 -->
      <g style="fill: #a9a9a9" transform="translate(94.6375 311.672051) scale(0.1 -0.1)">
       <use xlink:href="#DejaVuSans-30"/>
      </g>
     </g>
    </g>
    <g id="ytick_2">
     <g id="line2d_23">
      <path d="M 108 278.739884 
L 777.6 278.739884 
" clip-path="url(#p2c9190758d)" style="fill: none; stroke-dasharray: 5.12,1.28,0.8,1.28; stroke-dashoffset: 0; stroke: #b0b0b0; stroke-width: 0.8"/>
     </g>
     <g id="line2d_24">
      <g>
       <use xlink:href="#m4ae50992dd" x="108" y="278.739884" style="fill: #a9a9a9; stroke: #a9a9a9; stroke-width: 0.8"/>
      </g>
     </g>
     <g id="text_12">
      <!-- 400 -->
      <g style="fill: #a9a9a9" transform="translate(81.9125 282.539103) scale(0.1 -0.1)">
       <defs>
        <path id="DejaVuSans-34" d="M 2419 4116 
L 825 1625 
L 2419 1625 
L 2419 4116 
z
M 2253 4666 
L 3047 4666 
L 3047 1625 
L 3713 1625 
L 3713 1100 
L 3047 1100 
L 3047 0 
L 2419 0 
L 2419 1100 
L 313 1100 
L 313 1709 
L 2253 4666 
z
" transform="scale(0.015625)"/>
       </defs>
       <use xlink:href="#DejaVuSans-34"/>
       <use xlink:href="#DejaVuSans-30" x="63.623047"/>
       <use xlink:href="#DejaVuSans-30" x="127.246094"/>
      </g>
     </g>
    </g>
    <g id="ytick_3">
     <g id="line2d_25">
      <path d="M 108 249.606936 
L 777.6 249.606936 
" clip-path="url(#p2c9190758d)" style="fill: none; stroke-dasharray: 5.12,1.28,0.8,1.28; stroke-dashoffset: 0; stroke: #b0b0b0; stroke-width: 0.8"/>
     </g>
     <g id="line2d_26">
      <g>
       <use xlink:href="#m4ae50992dd" x="108" y="249.606936" style="fill: #a9a9a9; stroke: #a9a9a9; stroke-width: 0.8"/>
      </g>
     </g>
     <g id="text_13">
      <!-- 800 -->
      <g style="fill: #a9a9a9" transform="translate(81.9125 253.406155) scale(0.1 -0.1)">
       <defs>
        <path id="DejaVuSans-38" d="M 2034 2216 
Q 1584 2216 1326 1975 
Q 1069 1734 1069 1313 
Q 1069 891 1326 650 
Q 1584 409 2034 409 
Q 2484 409 2743 651 
Q 3003 894 3003 1313 
Q 3003 1734 2745 1975 
Q 2488 2216 2034 2216 
z
M 1403 2484 
Q 997 2584 770 2862 
Q 544 3141 544 3541 
Q 544 4100 942 4425 
Q 1341 4750 2034 4750 
Q 2731 4750 3128 4425 
Q 3525 4100 3525 3541 
Q 3525 3141 3298 2862 
Q 3072 2584 2669 2484 
Q 3125 2378 3379 2068 
Q 3634 1759 3634 1313 
Q 3634 634 3220 271 
Q 2806 -91 2034 -91 
Q 1263 -91 848 271 
Q 434 634 434 1313 
Q 434 1759 690 2068 
Q 947 2378 1403 2484 
z
M 1172 3481 
Q 1172 3119 1398 2916 
Q 1625 2713 2034 2713 
Q 2441 2713 2670 2916 
Q 2900 3119 2900 3481 
Q 2900 3844 2670 4047 
Q 2441 4250 2034 4250 
Q 1625 4250 1398 4047 
Q 1172 3844 1172 3481 
z
" transform="scale(0.015625)"/>
       </defs>
       <use xlink:href="#DejaVuSans-38"/>
       <use xlink:href="#DejaVuSans-30" x="63.623047"/>
       <use xlink:href="#DejaVuSans-30" x="127.246094"/>
      </g>
     </g>
    </g>
    <g id="ytick_4">
     <g id="line2d_27">
      <path d="M 108 220.473988 
L 777.6 220.473988 
" clip-path="url(#p2c9190758d)" style="fill: none; stroke-dasharray: 5.12,1.28,0.8,1.28; stroke-dashoffset: 0; stroke: #b0b0b0; stroke-width: 0.8"/>
     </g>
     <g id="line2d_28">
      <g>
       <use xlink:href="#m4ae50992dd" x="108" y="220.473988" style="fill: #a9a9a9; stroke: #a9a9a9; stroke-width: 0.8"/>
      </g>
     </g>
     <g id="text_14">
      <!-- 1200 -->
      <g style="fill: #a9a9a9" transform="translate(75.55 224.273207) scale(0.1 -0.1)">
       <use xlink:href="#DejaVuSans-31"/>
       <use xlink:href="#DejaVuSans-32" x="63.623047"/>
       <use xlink:href="#DejaVuSans-30" x="127.246094"/>
       <use xlink:href="#DejaVuSans-30" x="190.869141"/>
      </g>
     </g>
    </g>
    <g id="ytick_5">
     <g id="line2d_29">
      <path d="M 108 191.34104 
L 777.6 191.34104 
" clip-path="url(#p2c9190758d)" style="fill: none; stroke-dasharray: 5.12,1.28,0.8,1.28; stroke-dashoffset: 0; stroke: #b0b0b0; stroke-width: 0.8"/>
     </g>
     <g id="line2d_30">
      <g>
       <use xlink:href="#m4ae50992dd" x="108" y="191.34104" style="fill: #a9a9a9; stroke: #a9a9a9; stroke-width: 0.8"/>
      </g>
     </g>
     <g id="text_15">
      <!-- 1600 -->
      <g style="fill: #a9a9a9" transform="translate(75.55 195.140259) scale(0.1 -0.1)">
       <defs>
        <path id="DejaVuSans-36" d="M 2113 2584 
Q 1688 2584 1439 2293 
Q 1191 2003 1191 1497 
Q 1191 994 1439 701 
Q 1688 409 2113 409 
Q 2538 409 2786 701 
Q 3034 994 3034 1497 
Q 3034 2003 2786 2293 
Q 2538 2584 2113 2584 
z
M 3366 4563 
L 3366 3988 
Q 3128 4100 2886 4159 
Q 2644 4219 2406 4219 
Q 1781 4219 1451 3797 
Q 1122 3375 1075 2522 
Q 1259 2794 1537 2939 
Q 1816 3084 2150 3084 
Q 2853 3084 3261 2657 
Q 3669 2231 3669 1497 
Q 3669 778 3244 343 
Q 2819 -91 2113 -91 
Q 1303 -91 875 529 
Q 447 1150 447 2328 
Q 447 3434 972 4092 
Q 1497 4750 2381 4750 
Q 2619 4750 2861 4703 
Q 3103 4656 3366 4563 
z
" transform="scale(0.015625)"/>
       </defs>
       <use xlink:href="#DejaVuSans-31"/>
       <use xlink:href="#DejaVuSans-36" x="63.623047"/>
       <use xlink:href="#DejaVuSans-30" x="127.246094"/>
       <use xlink:href="#DejaVuSans-30" x="190.869141"/>
      </g>
     </g>
    </g>
    <g id="ytick_6">
     <g id="line2d_31">
      <path d="M 108 162.208092 
L 777.6 162.208092 
" clip-path="url(#p2c9190758d)" style="fill: none; stroke-dasharray: 5.12,1.28,0.8,1.28; stroke-dashoffset: 0; stroke: #b0b0b0; stroke-width: 0.8"/>
     </g>
     <g id="line2d_32">
      <g>
       <use xlink:href="#m4ae50992dd" x="108" y="162.208092" style="fill: #a9a9a9; stroke: #a9a9a9; stroke-width: 0.8"/>
      </g>
     </g>
     <g id="text_16">
      <!-- 2000 -->
      <g style="fill: #a9a9a9" transform="translate(75.55 166.007311) scale(0.1 -0.1)">
       <use xlink:href="#DejaVuSans-32"/>
       <use xlink:href="#DejaVuSans-30" x="63.623047"/>
       <use xlink:href="#DejaVuSans-30" x="127.246094"/>
       <use xlink:href="#DejaVuSans-30" x="190.869141"/>
      </g>
     </g>
    </g>
    <g id="ytick_7">
     <g id="line2d_33">
      <path d="M 108 133.075145 
L 777.6 133.075145 
" clip-path="url(#p2c9190758d)" style="fill: none; stroke-dasharray: 5.12,1.28,0.8,1.28; stroke-dashoffset: 0; stroke: #b0b0b0; stroke-width: 0.8"/>
     </g>
     <g id="line2d_34">
      <g>
       <use xlink:href="#m4ae50992dd" x="108" y="133.075145" style="fill: #a9a9a9; stroke: #a9a9a9; stroke-width: 0.8"/>
      </g>
     </g>
     <g id="text_17">
      <!-- 2400 -->
      <g style="fill: #a9a9a9" transform="translate(75.55 136.874363) scale(0.1 -0.1)">
       <use xlink:href="#DejaVuSans-32"/>
       <use xlink:href="#DejaVuSans-34" x="63.623047"/>
       <use xlink:href="#DejaVuSans-30" x="127.246094"/>
       <use xlink:href="#DejaVuSans-30" x="190.869141"/>
      </g>
     </g>
    </g>
    <g id="ytick_8">
     <g id="line2d_35">
      <path d="M 108 103.942197 
L 777.6 103.942197 
" clip-path="url(#p2c9190758d)" style="fill: none; stroke-dasharray: 5.12,1.28,0.8,1.28; stroke-dashoffset: 0; stroke: #b0b0b0; stroke-width: 0.8"/>
     </g>
     <g id="line2d_36">
      <g>
       <use xlink:href="#m4ae50992dd" x="108" y="103.942197" style="fill: #a9a9a9; stroke: #a9a9a9; stroke-width: 0.8"/>
      </g>
     </g>
     <g id="text_18">
      <!-- 2800 -->
      <g style="fill: #a9a9a9" transform="translate(75.55 107.741415) scale(0.1 -0.1)">
       <use xlink:href="#DejaVuSans-32"/>
       <use xlink:href="#DejaVuSans-38" x="63.623047"/>
       <use xlink:href="#DejaVuSans-30" x="127.246094"/>
       <use xlink:href="#DejaVuSans-30" x="190.869141"/>
      </g>
     </g>
    </g>
    <g id="ytick_9">
     <g id="line2d_37">
      <path d="M 108 74.809249 
L 777.6 74.809249 
" clip-path="url(#p2c9190758d)" style="fill: none; stroke-dasharray: 5.12,1.28,0.8,1.28; stroke-dashoffset: 0; stroke: #b0b0b0; stroke-width: 0.8"/>
     </g>
     <g id="line2d_38">
      <g>
       <use xlink:href="#m4ae50992dd" x="108" y="74.809249" style="fill: #a9a9a9; stroke: #a9a9a9; stroke-width: 0.8"/>
      </g>
     </g>
     <g id="text_19">
      <!-- 3200 -->
      <g style="fill: #a9a9a9" transform="translate(75.55 78.608467) scale(0.1 -0.1)">
       <use xlink:href="#DejaVuSans-33"/>
       <use xlink:href="#DejaVuSans-32" x="63.623047"/>
       <use xlink:href="#DejaVuSans-30" x="127.246094"/>
       <use xlink:href="#DejaVuSans-30" x="190.869141"/>
      </g>
     </g>
    </g>
    <g id="ytick_10">
     <g id="line2d_39">
      <path d="M 108 45.676301 
L 777.6 45.676301 
" clip-path="url(#p2c9190758d)" style="fill: none; stroke-dasharray: 5.12,1.28,0.8,1.28; stroke-dashoffset: 0; stroke: #b0b0b0; stroke-width: 0.8"/>
     </g>
     <g id="line2d_40">
      <g>
       <use xlink:href="#m4ae50992dd" x="108" y="45.676301" style="fill: #a9a9a9; stroke: #a9a9a9; stroke-width: 0.8"/>
      </g>
     </g>
     <g id="text_20">
      <!-- 3600 -->
      <g style="fill: #a9a9a9" transform="translate(75.55 49.475519) scale(0.1 -0.1)">
       <use xlink:href="#DejaVuSans-33"/>
       <use xlink:href="#DejaVuSans-36" x="63.623047"/>
       <use xlink:href="#DejaVuSans-30" x="127.246094"/>
       <use xlink:href="#DejaVuSans-30" x="190.869141"/>
      </g>
     </g>
    </g>
   </g>
   <g id="line2d_41">
    <path d="M 138.436364 307.581503 
L 143.092022 307.217341 
L 144.255936 307.071676 
L 145.419851 307.071676 
L 146.583765 306.634682 
L 148.911594 306.489017 
L 157.058995 304.959538 
L 159.386824 304.813873 
L 160.550739 304.595376 
L 164.042482 304.376879 
L 165.206397 303.79422 
L 166.370311 303.50289 
L 167.534226 302.191908 
L 168.69814 301.463584 
L 169.862055 298.914451 
L 171.025969 298.768786 
L 172.189884 297.96763 
L 173.353798 297.530636 
L 174.517712 296.947977 
L 178.009456 294.253179 
L 179.17337 293.67052 
L 181.501199 292.796532 
L 182.665114 291.995376 
L 183.829028 291.558382 
L 186.156857 290.174566 
L 187.320772 289.810405 
L 188.484686 288.062428 
L 189.648601 287.188439 
L 190.812515 286.532948 
L 191.97643 286.023121 
L 196.632088 285.36763 
L 200.123831 284.784971 
L 202.45166 284.639306 
L 203.615574 284.420809 
L 204.779489 283.83815 
L 209.435147 283.473988 
L 212.92689 283.109827 
L 214.090805 282.745665 
L 219.910377 281.653179 
L 222.238206 281.434682 
L 223.402121 281.143353 
L 226.893864 280.706358 
L 228.057779 280.123699 
L 229.221693 279.978035 
L 231.549522 279.176879 
L 233.877351 278.958382 
L 235.041265 278.59422 
L 239.696923 277.938728 
L 240.860838 277.574566 
L 243.188667 277.210405 
L 244.352581 277.210405 
L 250.172154 276.482081 
L 252.499983 275.82659 
L 253.663897 275.53526 
L 255.991726 275.316763 
L 257.155641 275.243931 
L 260.647384 274.588439 
L 261.811298 274.151445 
L 262.975213 272.694798 
L 264.139127 272.257803 
L 265.303042 271.675145 
L 266.466956 271.52948 
L 267.630871 271.23815 
L 268.794785 271.092486 
L 271.122614 270.145665 
L 272.286529 270.072832 
L 278.106101 268.543353 
L 279.270016 268.543353 
L 281.597845 268.252023 
L 283.925674 267.596532 
L 287.417417 266.722543 
L 288.581331 266.649711 
L 290.90916 265.70289 
L 292.073075 265.557225 
L 293.236989 265.047399 
L 295.564818 264.828902 
L 296.728733 264.756069 
L 300.220476 264.17341 
L 302.548305 263.809249 
L 306.040049 263.153757 
L 307.203963 262.789595 
L 308.367878 262.643931 
L 310.695707 261.842775 
L 311.859621 261.187283 
L 313.023536 260.895954 
L 314.18745 260.750289 
L 316.515279 260.021965 
L 318.843108 258.783815 
L 320.007022 258.055491 
L 321.170937 257.909827 
L 322.334851 257.545665 
L 323.498766 257.4 
L 324.66268 257.108671 
L 325.826595 256.963006 
L 326.990509 256.453179 
L 329.318338 256.089017 
L 330.482253 255.506358 
L 331.646167 255.069364 
L 332.810082 254.778035 
L 333.973996 254.63237 
L 335.137911 254.195376 
L 339.793569 253.321387 
L 342.121398 252.374566 
L 343.285312 252.156069 
L 344.449226 251.719075 
L 345.613141 251.57341 
L 346.777055 251.063584 
L 347.94097 250.772254 
L 350.268799 250.62659 
L 352.596628 249.898266 
L 353.760542 249.752601 
L 354.924457 249.752601 
L 356.088371 249.242775 
L 358.4162 248.878613 
L 359.580115 248.441618 
L 361.907944 248.368786 
L 363.071858 248.223121 
L 364.235773 248.223121 
L 366.563602 247.85896 
L 368.891431 246.766474 
L 371.21926 245.746821 
L 372.383174 245.455491 
L 373.547088 244.727168 
L 374.711003 244.363006 
L 377.038832 243.343353 
L 378.202746 243.124855 
L 379.366661 242.615029 
L 380.530575 242.250867 
L 381.69449 241.522543 
L 382.858404 240.939884 
L 384.022319 239.774566 
L 385.186233 237.953757 
L 386.350148 236.49711 
L 387.514062 236.132948 
L 388.677977 236.132948 
L 389.841891 235.404624 
L 391.005806 234.530636 
L 392.16972 234.239306 
L 393.333635 233.656647 
L 394.497549 233.43815 
L 395.661464 232.418497 
L 396.825378 232.127168 
L 400.317122 230.597688 
L 401.481036 229.286705 
L 402.64495 227.611561 
L 403.808865 226.956069 
L 404.972779 225.13526 
L 406.136694 224.042775 
L 407.300608 223.532948 
L 408.464523 223.241618 
L 409.628437 222.513295 
L 411.956266 221.420809 
L 413.120181 220.619653 
L 414.284095 219.672832 
L 415.44801 218.871676 
L 416.611924 218.216185 
L 417.775839 216.686705 
L 418.939753 214.137572 
L 420.103668 212.53526 
L 421.267582 211.661272 
L 422.431497 211.151445 
L 427.087155 207.436994 
L 429.414983 205.616185 
L 430.578898 204.669364 
L 431.742812 203.067052 
L 432.906727 202.047399 
L 435.234556 200.517919 
L 437.562385 198.988439 
L 438.726299 198.187283 
L 439.890214 197.240462 
L 441.054128 196.949133 
L 442.218043 196.439306 
L 445.709786 194.545665 
L 448.037615 193.453179 
L 450.365444 191.486705 
L 451.529359 190.10289 
L 452.693273 189.301734 
L 453.857188 188.646243 
L 455.021102 188.354913 
L 456.185017 187.772254 
L 457.348931 186.971098 
L 459.67676 185.80578 
L 460.840674 185.587283 
L 462.004589 184.85896 
L 464.332418 183.620809 
L 465.496332 182.528324 
L 466.660247 181.727168 
L 467.824161 181.363006 
L 468.988076 180.634682 
L 470.15199 180.124855 
L 471.315905 179.396532 
L 472.479819 178.959538 
L 473.643734 178.231214 
L 474.807648 177.284393 
L 477.135477 176.483237 
L 478.299392 175.97341 
L 479.463306 175.754913 
L 480.627221 175.02659 
L 481.791135 174.808092 
L 484.118964 174.006936 
L 485.282878 173.642775 
L 487.610707 172.695954 
L 488.774622 172.25896 
L 489.938536 171.96763 
L 491.102451 171.530636 
L 493.43028 171.166474 
L 495.758109 169.272832 
L 496.922023 168.835838 
L 499.249852 167.597688 
L 501.577681 166.359538 
L 503.90551 165.704046 
L 505.069425 164.830058 
L 506.233339 164.538728 
L 508.561168 163.082081 
L 509.725083 162.499422 
L 513.216826 161.771098 
L 515.544655 161.115607 
L 519.036398 159.221965 
L 520.200313 159.076301 
L 521.364227 158.639306 
L 522.528142 158.493642 
L 523.692056 158.056647 
L 524.855971 157.328324 
L 526.019885 156.454335 
L 527.1838 155.726012 
L 528.347714 155.507514 
L 529.511629 154.997688 
L 530.675543 154.852023 
L 531.839458 154.415029 
L 533.003372 153.613873 
L 534.167287 153.249711 
L 535.331201 152.739884 
L 539.986859 151.501734 
L 541.150774 151.428902 
L 542.314688 151.06474 
L 544.642517 150.045087 
L 545.806431 149.680925 
L 546.970346 149.462428 
L 548.13426 148.952601 
L 549.298175 148.588439 
L 550.462089 148.078613 
L 552.789918 147.423121 
L 553.953833 147.350289 
L 556.281662 146.840462 
L 557.445576 146.330636 
L 558.609491 146.112139 
L 560.93732 145.165318 
L 564.429063 143.563006 
L 566.756892 142.106358 
L 567.920807 141.815029 
L 569.084721 141.159538 
L 570.248635 140.722543 
L 571.41255 140.067052 
L 573.740379 139.484393 
L 574.904293 138.828902 
L 577.232122 137.882081 
L 579.559951 137.517919 
L 580.723866 136.716763 
L 581.88778 136.134104 
L 583.051695 135.915607 
L 584.215609 135.478613 
L 585.379524 134.895954 
L 586.543438 134.677457 
L 587.707353 134.094798 
L 592.363011 133.439306 
L 594.69084 132.419653 
L 595.854754 131.545665 
L 597.018669 129.579191 
L 598.182583 129.287861 
L 599.346497 129.142197 
L 600.510412 128.850867 
L 602.838241 127.612717 
L 604.002155 127.175723 
L 605.16607 126.593064 
L 606.329984 126.301734 
L 608.657813 125.209249 
L 610.985642 124.116763 
L 613.313471 123.169942 
L 614.477386 122.441618 
L 615.6413 122.004624 
L 619.133044 121.203468 
L 621.460873 120.110983 
L 622.624787 119.601156 
L 623.788702 119.382659 
L 627.280445 118.071676 
L 629.608274 116.687861 
L 630.772188 115.959538 
L 631.936103 115.376879 
L 633.100017 115.158382 
L 634.263932 114.721387 
L 635.427846 114.648555 
L 640.083504 113.191908 
L 641.247419 113.119075 
L 642.411333 112.317919 
L 643.575248 112.02659 
L 644.739162 111.516763 
L 648.230906 110.49711 
L 649.39482 109.841618 
L 650.558735 109.477457 
L 651.722649 108.749133 
L 652.886564 108.239306 
L 654.050478 107.583815 
L 659.87005 105.326012 
L 661.033965 104.67052 
L 662.197879 103.869364 
L 663.361794 102.631214 
L 664.525708 101.90289 
L 665.689623 101.684393 
L 668.017452 99.936416 
L 669.181366 99.572254 
L 670.345281 97.89711 
L 671.509195 97.460116 
L 672.67311 96.65896 
L 673.837024 96.440462 
L 675.000939 95.712139 
L 676.164853 95.202312 
L 677.328768 94.983815 
L 678.492682 94.546821 
L 679.656597 93.6 
L 680.820511 93.235838 
L 683.14834 91.706358 
L 684.312254 90.978035 
L 685.476169 90.468208 
L 687.803998 89.230058 
L 688.967912 88.720231 
L 690.131827 88.574566 
L 691.295741 88.137572 
L 692.459656 87.554913 
L 693.62357 86.82659 
L 694.787485 85.078613 
L 695.951399 83.986127 
L 697.115314 83.330636 
L 698.279228 83.039306 
L 700.607057 81.728324 
L 701.770972 81.509827 
L 702.934886 80.927168 
L 706.42663 79.543353 
L 707.590544 78.960694 
L 709.918373 77.358382 
L 712.246202 75.027746 
L 713.410116 74.153757 
L 715.737945 72.769942 
L 716.90186 71.677457 
L 720.393603 69.055491 
L 721.557518 68.472832 
L 722.721432 67.234682 
L 723.885347 66.433526 
L 725.049261 66.069364 
L 726.213176 65.559538 
L 727.37709 64.467052 
L 729.704919 63.301734 
L 730.868834 63.010405 
L 732.032748 62.209249 
L 733.196663 61.845087 
L 735.524492 60.825434 
L 737.852321 59.150289 
L 739.016235 58.56763 
L 741.344064 57.766474 
L 742.507978 57.03815 
L 745.999722 55.8 
L 747.163636 55.8 
L 747.163636 55.8 
" clip-path="url(#p2c9190758d)" style="fill: none; stroke: #1f77b4; stroke-width: 1.5; stroke-linecap: square"/>
   </g>
   <g id="line2d_42">
    <path d="M 139.600278 307.8 
L 141.928107 307.8 
L 144.255936 307.508671 
L 151.239423 307.435838 
L 154.731166 307.290173 
L 158.22291 307.217341 
L 160.550739 307.144509 
L 164.042482 307.144509 
L 165.206397 306.853179 
L 168.69814 306.780347 
L 174.517712 306.124855 
L 183.829028 305.615029 
L 184.992943 305.615029 
L 186.156857 305.396532 
L 189.648601 305.323699 
L 191.97643 305.03237 
L 196.632088 305.03237 
L 197.796002 304.886705 
L 203.615574 304.813873 
L 207.107318 304.668208 
L 217.582548 304.595376 
L 219.910377 304.522543 
L 224.566035 304.449711 
L 228.057779 304.304046 
L 232.713436 304.304046 
L 233.877351 304.158382 
L 237.369094 304.085549 
L 242.024752 303.867052 
L 250.172154 303.79422 
L 252.499983 303.721387 
L 257.155641 303.648555 
L 260.647384 303.211561 
L 266.466956 303.138728 
L 272.286529 302.847399 
L 278.106101 302.774566 
L 281.597845 302.628902 
L 283.925674 302.556069 
L 286.253503 302.337572 
L 290.90916 302.119075 
L 294.400904 302.046243 
L 296.728733 301.97341 
L 299.056562 301.97341 
L 300.220476 301.827746 
L 303.71222 301.827746 
L 306.040049 301.609249 
L 309.531792 301.463584 
L 315.351365 301.390751 
L 320.007022 300.880925 
L 321.170937 300.808092 
L 322.334851 300.589595 
L 326.990509 300.516763 
L 330.482253 300.225434 
L 332.810082 300.006936 
L 338.629654 299.715607 
L 342.121398 299.642775 
L 345.613141 299.49711 
L 346.777055 299.49711 
L 349.104884 299.278613 
L 351.432713 299.20578 
L 352.596628 299.20578 
L 353.760542 299.060116 
L 356.088371 298.987283 
L 361.907944 298.695954 
L 364.235773 298.623121 
L 367.727516 298.477457 
L 371.21926 298.404624 
L 373.547088 298.331792 
L 379.366661 298.25896 
L 384.022319 297.749133 
L 385.186233 297.749133 
L 387.514062 297.530636 
L 389.841891 297.457803 
L 395.661464 297.020809 
L 396.825378 296.72948 
L 399.153207 296.583815 
L 400.317122 296.292486 
L 403.808865 296.001156 
L 406.136694 295.491329 
L 408.464523 295.418497 
L 410.792352 295.418497 
L 411.956266 295.272832 
L 413.120181 295.272832 
L 415.44801 294.908671 
L 420.103668 294.107514 
L 421.267582 294.107514 
L 422.431497 293.96185 
L 425.92324 293.889017 
L 441.054128 292.942197 
L 442.218043 292.723699 
L 445.709786 292.505202 
L 448.037615 292.14104 
L 450.365444 291.922543 
L 452.693273 291.849711 
L 455.021102 291.849711 
L 456.185017 291.558382 
L 457.348931 291.412717 
L 462.004589 291.339884 
L 464.332418 291.121387 
L 465.496332 291.121387 
L 468.988076 290.611561 
L 470.15199 290.320231 
L 471.315905 290.174566 
L 473.643734 290.101734 
L 479.463306 289.810405 
L 482.95505 289.737572 
L 498.085938 288.863584 
L 500.413767 288.863584 
L 502.741596 288.645087 
L 505.069425 288.645087 
L 508.561168 288.280925 
L 513.216826 288.062428 
L 515.544655 287.989595 
L 516.708569 287.843931 
L 521.364227 287.771098 
L 529.511629 287.334104 
L 535.331201 287.261272 
L 537.65903 287.188439 
L 538.822945 287.188439 
L 539.986859 286.969942 
L 542.314688 286.89711 
L 549.298175 286.824277 
L 552.789918 286.678613 
L 557.445576 286.60578 
L 558.609491 286.387283 
L 565.592978 286.314451 
L 567.920807 286.241618 
L 570.248635 286.168786 
L 572.576464 286.095954 
L 574.904293 286.023121 
L 584.215609 285.513295 
L 590.035182 285.440462 
L 593.526925 285.149133 
L 595.854754 284.930636 
L 598.182583 284.857803 
L 600.510412 284.784971 
L 601.674326 284.639306 
L 605.16607 284.566474 
L 606.329984 284.275145 
L 610.985642 284.056647 
L 621.460873 283.983815 
L 627.280445 283.546821 
L 630.772188 283.182659 
L 636.591761 283.109827 
L 640.083504 282.745665 
L 647.066991 282.381503 
L 649.39482 282.308671 
L 654.050478 282.090173 
L 658.706136 282.017341 
L 662.197879 281.871676 
L 666.853537 281.798844 
L 670.345281 281.434682 
L 672.67311 281.36185 
L 677.328768 281.289017 
L 680.820511 280.997688 
L 681.984426 280.852023 
L 683.14834 280.852023 
L 684.312254 280.633526 
L 686.640083 280.560694 
L 691.295741 280.487861 
L 693.62357 280.123699 
L 697.115314 280.050867 
L 699.443143 279.978035 
L 705.262715 279.905202 
L 707.590544 279.613873 
L 709.918373 279.54104 
L 712.246202 279.468208 
L 713.410116 279.176879 
L 715.737945 279.104046 
L 716.90186 278.885549 
L 719.229689 278.885549 
L 722.721432 278.521387 
L 747.163636 277.06474 
L 747.163636 277.06474 
" clip-path="url(#p2c9190758d)" style="fill: none; stroke: #ff7f0e; stroke-width: 1.5; stroke-linecap: square"/>
   </g>
   <g id="patch_3">
    <path d="M 108 320.4 
L 108 43.2 
" style="fill: none; stroke: #a9a9a9; stroke-width: 0.8; stroke-linejoin: miter; stroke-linecap: square"/>
   </g>
   <g id="patch_4">
    <path d="M 777.6 320.4 
L 777.6 43.2 
" style="fill: none"/>
   </g>
   <g id="patch_5">
    <path d="M 108 320.4 
L 777.6 320.4 
" style="fill: none; stroke: #a9a9a9; stroke-width: 0.8; stroke-linejoin: miter; stroke-linecap: square"/>
   </g>
   <g id="patch_6">
    <path d="M 108 43.2 
L 777.6 43.2 
" style="fill: none"/>
   </g>
   <g id="text_21">
    <!-- get_subscribe history -->
    <g style="fill: #a9a9a9" transform="translate(378.6075 37.2) scale(0.12 -0.12)">
     <defs>
      <path id="DejaVuSans-67" d="M 2906 1791 
Q 2906 2416 2648 2759 
Q 2391 3103 1925 3103 
Q 1463 3103 1205 2759 
Q 947 2416 947 1791 
Q 947 1169 1205 825 
Q 1463 481 1925 481 
Q 2391 481 2648 825 
Q 2906 1169 2906 1791 
z
M 3481 434 
Q 3481 -459 3084 -895 
Q 2688 -1331 1869 -1331 
Q 1566 -1331 1297 -1286 
Q 1028 -1241 775 -1147 
L 775 -588 
Q 1028 -725 1275 -790 
Q 1522 -856 1778 -856 
Q 2344 -856 2625 -561 
Q 2906 -266 2906 331 
L 2906 616 
Q 2728 306 2450 153 
Q 2172 0 1784 0 
Q 1141 0 747 490 
Q 353 981 353 1791 
Q 353 2603 747 3093 
Q 1141 3584 1784 3584 
Q 2172 3584 2450 3431 
Q 2728 3278 2906 2969 
L 2906 3500 
L 3481 3500 
L 3481 434 
z
" transform="scale(0.015625)"/>
      <path id="DejaVuSans-65" d="M 3597 1894 
L 3597 1613 
L 953 1613 
Q 991 1019 1311 708 
Q 1631 397 2203 397 
Q 2534 397 2845 478 
Q 3156 559 3463 722 
L 3463 178 
Q 3153 47 2828 -22 
Q 2503 -91 2169 -91 
Q 1331 -91 842 396 
Q 353 884 353 1716 
Q 353 2575 817 3079 
Q 1281 3584 2069 3584 
Q 2775 3584 3186 3129 
Q 3597 2675 3597 1894 
z
M 3022 2063 
Q 3016 2534 2758 2815 
Q 2500 3097 2075 3097 
Q 1594 3097 1305 2825 
Q 1016 2553 972 2059 
L 3022 2063 
z
" transform="scale(0.015625)"/>
      <path id="DejaVuSans-74" d="M 1172 4494 
L 1172 3500 
L 2356 3500 
L 2356 3053 
L 1172 3053 
L 1172 1153 
Q 1172 725 1289 603 
Q 1406 481 1766 481 
L 2356 481 
L 2356 0 
L 1766 0 
Q 1100 0 847 248 
Q 594 497 594 1153 
L 594 3053 
L 172 3053 
L 172 3500 
L 594 3500 
L 594 4494 
L 1172 4494 
z
" transform="scale(0.015625)"/>
      <path id="DejaVuSans-5f" d="M 3263 -1063 
L 3263 -1509 
L -63 -1509 
L -63 -1063 
L 3263 -1063 
z
" transform="scale(0.015625)"/>
      <path id="DejaVuSans-73" d="M 2834 3397 
L 2834 2853 
Q 2591 2978 2328 3040 
Q 2066 3103 1784 3103 
Q 1356 3103 1142 2972 
Q 928 2841 928 2578 
Q 928 2378 1081 2264 
Q 1234 2150 1697 2047 
L 1894 2003 
Q 2506 1872 2764 1633 
Q 3022 1394 3022 966 
Q 3022 478 2636 193 
Q 2250 -91 1575 -91 
Q 1294 -91 989 -36 
Q 684 19 347 128 
L 347 722 
Q 666 556 975 473 
Q 1284 391 1588 391 
Q 1994 391 2212 530 
Q 2431 669 2431 922 
Q 2431 1156 2273 1281 
Q 2116 1406 1581 1522 
L 1381 1569 
Q 847 1681 609 1914 
Q 372 2147 372 2553 
Q 372 3047 722 3315 
Q 1072 3584 1716 3584 
Q 2034 3584 2315 3537 
Q 2597 3491 2834 3397 
z
" transform="scale(0.015625)"/>
      <path id="DejaVuSans-75" d="M 544 1381 
L 544 3500 
L 1119 3500 
L 1119 1403 
Q 1119 906 1312 657 
Q 1506 409 1894 409 
Q 2359 409 2629 706 
Q 2900 1003 2900 1516 
L 2900 3500 
L 3475 3500 
L 3475 0 
L 2900 0 
L 2900 538 
Q 2691 219 2414 64 
Q 2138 -91 1772 -91 
Q 1169 -91 856 284 
Q 544 659 544 1381 
z
M 1991 3584 
L 1991 3584 
z
" transform="scale(0.015625)"/>
      <path id="DejaVuSans-62" d="M 3116 1747 
Q 3116 2381 2855 2742 
Q 2594 3103 2138 3103 
Q 1681 3103 1420 2742 
Q 1159 2381 1159 1747 
Q 1159 1113 1420 752 
Q 1681 391 2138 391 
Q 2594 391 2855 752 
Q 3116 1113 3116 1747 
z
M 1159 2969 
Q 1341 3281 1617 3432 
Q 1894 3584 2278 3584 
Q 2916 3584 3314 3078 
Q 3713 2572 3713 1747 
Q 3713 922 3314 415 
Q 2916 -91 2278 -91 
Q 1894 -91 1617 61 
Q 1341 213 1159 525 
L 1159 0 
L 581 0 
L 581 4863 
L 1159 4863 
L 1159 2969 
z
" transform="scale(0.015625)"/>
      <path id="DejaVuSans-63" d="M 3122 3366 
L 3122 2828 
Q 2878 2963 2633 3030 
Q 2388 3097 2138 3097 
Q 1578 3097 1268 2742 
Q 959 2388 959 1747 
Q 959 1106 1268 751 
Q 1578 397 2138 397 
Q 2388 397 2633 464 
Q 2878 531 3122 666 
L 3122 134 
Q 2881 22 2623 -34 
Q 2366 -91 2075 -91 
Q 1284 -91 818 406 
Q 353 903 353 1747 
Q 353 2603 823 3093 
Q 1294 3584 2113 3584 
Q 2378 3584 2631 3529 
Q 2884 3475 3122 3366 
z
" transform="scale(0.015625)"/>
      <path id="DejaVuSans-72" d="M 2631 2963 
Q 2534 3019 2420 3045 
Q 2306 3072 2169 3072 
Q 1681 3072 1420 2755 
Q 1159 2438 1159 1844 
L 1159 0 
L 581 0 
L 581 3500 
L 1159 3500 
L 1159 2956 
Q 1341 3275 1631 3429 
Q 1922 3584 2338 3584 
Q 2397 3584 2469 3576 
Q 2541 3569 2628 3553 
L 2631 2963 
z
" transform="scale(0.015625)"/>
      <path id="DejaVuSans-69" d="M 603 3500 
L 1178 3500 
L 1178 0 
L 603 0 
L 603 3500 
z
M 603 4863 
L 1178 4863 
L 1178 4134 
L 603 4134 
L 603 4863 
z
" transform="scale(0.015625)"/>
      <path id="DejaVuSans-20" transform="scale(0.015625)"/>
      <path id="DejaVuSans-68" d="M 3513 2113 
L 3513 0 
L 2938 0 
L 2938 2094 
Q 2938 2591 2744 2837 
Q 2550 3084 2163 3084 
Q 1697 3084 1428 2787 
Q 1159 2491 1159 1978 
L 1159 0 
L 581 0 
L 581 4863 
L 1159 4863 
L 1159 2956 
Q 1366 3272 1645 3428 
Q 1925 3584 2291 3584 
Q 2894 3584 3203 3211 
Q 3513 2838 3513 2113 
z
" transform="scale(0.015625)"/>
      <path id="DejaVuSans-6f" d="M 1959 3097 
Q 1497 3097 1228 2736 
Q 959 2375 959 1747 
Q 959 1119 1226 758 
Q 1494 397 1959 397 
Q 2419 397 2687 759 
Q 2956 1122 2956 1747 
Q 2956 2369 2687 2733 
Q 2419 3097 1959 3097 
z
M 1959 3584 
Q 2709 3584 3137 3096 
Q 3566 2609 3566 1747 
Q 3566 888 3137 398 
Q 2709 -91 1959 -91 
Q 1206 -91 779 398 
Q 353 888 353 1747 
Q 353 2609 779 3096 
Q 1206 3584 1959 3584 
z
" transform="scale(0.015625)"/>
      <path id="DejaVuSans-79" d="M 2059 -325 
Q 1816 -950 1584 -1140 
Q 1353 -1331 966 -1331 
L 506 -1331 
L 506 -850 
L 844 -850 
Q 1081 -850 1212 -737 
Q 1344 -625 1503 -206 
L 1606 56 
L 191 3500 
L 800 3500 
L 1894 763 
L 2988 3500 
L 3597 3500 
L 2059 -325 
z
" transform="scale(0.015625)"/>
     </defs>
     <use xlink:href="#DejaVuSans-67"/>
     <use xlink:href="#DejaVuSans-65" x="63.476562"/>
     <use xlink:href="#DejaVuSans-74" x="125"/>
     <use xlink:href="#DejaVuSans-5f" x="164.208984"/>
     <use xlink:href="#DejaVuSans-73" x="214.208984"/>
     <use xlink:href="#DejaVuSans-75" x="266.308594"/>
     <use xlink:href="#DejaVuSans-62" x="329.6875"/>
     <use xlink:href="#DejaVuSans-73" x="393.164062"/>
     <use xlink:href="#DejaVuSans-63" x="445.263672"/>
     <use xlink:href="#DejaVuSans-72" x="500.244141"/>
     <use xlink:href="#DejaVuSans-69" x="541.357422"/>
     <use xlink:href="#DejaVuSans-62" x="569.140625"/>
     <use xlink:href="#DejaVuSans-65" x="632.617188"/>
     <use xlink:href="#DejaVuSans-20" x="694.140625"/>
     <use xlink:href="#DejaVuSans-68" x="725.927734"/>
     <use xlink:href="#DejaVuSans-69" x="789.306641"/>
     <use xlink:href="#DejaVuSans-73" x="817.089844"/>
     <use xlink:href="#DejaVuSans-74" x="869.189453"/>
     <use xlink:href="#DejaVuSans-6f" x="908.398438"/>
     <use xlink:href="#DejaVuSans-72" x="969.580078"/>
     <use xlink:href="#DejaVuSans-79" x="1010.693359"/>
    </g>
   </g>
   <g id="legend_1">
    <g id="line2d_43">
     <path d="M 815.08 328.498438 
L 825.08 328.498438 
L 835.08 328.498438 
" style="fill: none; stroke: #1f77b4; stroke-width: 1.5; stroke-linecap: square"/>
    </g>
    <g id="text_22">
     <!-- star -->
     <g style="fill: #a9a9a9" transform="translate(843.08 331.998438) scale(0.1 -0.1)">
      <defs>
       <path id="DejaVuSans-61" d="M 2194 1759 
Q 1497 1759 1228 1600 
Q 959 1441 959 1056 
Q 959 750 1161 570 
Q 1363 391 1709 391 
Q 2188 391 2477 730 
Q 2766 1069 2766 1631 
L 2766 1759 
L 2194 1759 
z
M 3341 1997 
L 3341 0 
L 2766 0 
L 2766 531 
Q 2569 213 2275 61 
Q 1981 -91 1556 -91 
Q 1019 -91 701 211 
Q 384 513 384 1019 
Q 384 1609 779 1909 
Q 1175 2209 1959 2209 
L 2766 2209 
L 2766 2266 
Q 2766 2663 2505 2880 
Q 2244 3097 1772 3097 
Q 1472 3097 1187 3025 
Q 903 2953 641 2809 
L 641 3341 
Q 956 3463 1253 3523 
Q 1550 3584 1831 3584 
Q 2591 3584 2966 3190 
Q 3341 2797 3341 1997 
z
" transform="scale(0.015625)"/>
      </defs>
      <use xlink:href="#DejaVuSans-73"/>
      <use xlink:href="#DejaVuSans-74" x="52.099609"/>
      <use xlink:href="#DejaVuSans-61" x="91.308594"/>
      <use xlink:href="#DejaVuSans-72" x="152.587891"/>
     </g>
    </g>
    <g id="line2d_44">
     <path d="M 815.08 343.176562 
L 825.08 343.176562 
L 835.08 343.176562 
" style="fill: none; stroke: #ff7f0e; stroke-width: 1.5; stroke-linecap: square"/>
    </g>
    <g id="text_23">
     <!-- fork -->
     <g style="fill: #a9a9a9" transform="translate(843.08 346.676562) scale(0.1 -0.1)">
      <defs>
       <path id="DejaVuSans-66" d="M 2375 4863 
L 2375 4384 
L 1825 4384 
Q 1516 4384 1395 4259 
Q 1275 4134 1275 3809 
L 1275 3500 
L 2222 3500 
L 2222 3053 
L 1275 3053 
L 1275 0 
L 697 0 
L 697 3053 
L 147 3053 
L 147 3500 
L 697 3500 
L 697 3744 
Q 697 4328 969 4595 
Q 1241 4863 1831 4863 
L 2375 4863 
z
" transform="scale(0.015625)"/>
       <path id="DejaVuSans-6b" d="M 581 4863 
L 1159 4863 
L 1159 1991 
L 2875 3500 
L 3609 3500 
L 1753 1863 
L 3688 0 
L 2938 0 
L 1159 1709 
L 1159 0 
L 581 0 
L 581 4863 
z
" transform="scale(0.015625)"/>
      </defs>
      <use xlink:href="#DejaVuSans-66"/>
      <use xlink:href="#DejaVuSans-6f" x="35.205078"/>
      <use xlink:href="#DejaVuSans-72" x="96.386719"/>
      <use xlink:href="#DejaVuSans-6b" x="137.5"/>
     </g>
    </g>
   </g>
  </g>
 </g>
 <defs>
  <clipPath id="p2c9190758d">
   <rect x="108" y="43.2" width="669.6" height="277.2"/>
  </clipPath>
 </defs>
</svg>
